<svg width="54" height="54" viewBox="0 0 54 54" fill="none" xmlns="http://www.w3.org/2000/svg">
<rect width="54" height="54" rx="27" fill="#AFCBEE"/>
<path d="M27 19.8C27.497 19.8 27.9 20.203 27.9 20.7001V26.1001L33.3 26.1C33.797 26.1 34.2 26.503 34.2 27C34.2 27.4971 33.797 27.9 33.3 27.9L27.9 27.9001L27.9 33.3C27.9 33.7971 27.497 34.2 27 34.2C26.5029 34.2 26.1 33.7971 26.1 33.3L26.0991 27.9001L20.7 27.9C20.2029 27.9 19.8 27.4971 19.8 27C19.8 26.503 20.2029 26.1 20.7 26.1L26.0991 26.1001L26.1 20.7001C26.1 20.203 26.5029 19.8 27 19.8Z" fill="#090707"/>
</svg>
