<svg width="36" height="36" viewBox="0 0 36 36" fill="none" xmlns="http://www.w3.org/2000/svg">
<path fill-rule="evenodd" clip-rule="evenodd" d="M22.9484 3.65309C22.5608 3.41069 22.1666 3.24742 21.7211 3.14474C21.2757 3.04207 20.8737 3 19.7118 3H11.7687C9.76282 3 9.03543 3.20886 8.3021 3.60105C7.56876 3.99324 6.99324 4.56876 6.60105 5.3021C6.20886 6.03543 6 6.76282 6 8.76874V25.7313C6 27.7372 6.20886 28.4646 6.60105 29.1979C6.99324 29.9312 7.56876 30.5068 8.3021 30.899C9.03543 31.2911 9.76282 31.5 11.7687 31.5H25.7313C27.7372 31.5 28.4646 31.2911 29.1979 30.899C29.9312 30.5068 30.5068 29.9312 30.899 29.1979C31.2911 28.4646 31.5 27.7372 31.5 25.7313V14.7882C31.5 13.6263 31.4579 13.2243 31.3553 12.7789C31.2526 12.3334 31.0893 11.9392 30.8469 11.5516C30.6045 11.164 30.35 10.85 29.5284 10.0284L24.4716 4.97157C23.65 4.14996 23.336 3.8955 22.9484 3.65309ZM20.8519 6.16426C20.5363 5.85148 20 6.07505 20 6.51941V12.5C20 12.7761 20.2239 13 20.5 13H26.5351C26.9817 13 27.2042 12.4592 26.8871 12.1448L20.8519 6.16426Z" fill="#99A2AD"/>
</svg>
