<svg width="24" height="24" viewBox="0 0 24 24" fill="none" xmlns="http://www.w3.org/2000/svg">
<path fill-rule="evenodd" clip-rule="evenodd" d="M17.6853 4.8198C16.4701 3.59353 14.5032 3.59353 13.288 4.8198L6.90263 11.2632C4.89925 13.2847 4.89925 16.5657 6.90263 18.5873C8.87547 20.5781 12.1696 20.5746 14.141 18.5842L17.4639 15.2635C17.8155 14.9121 18.3854 14.9123 18.7367 15.2639C19.0881 15.6155 19.0879 16.1854 18.7363 16.5367L15.4149 19.8559C12.7116 22.582 8.32673 22.5815 5.6241 19.8543C2.92543 17.1311 2.92543 12.7193 5.6241 9.99614L12.0095 3.55278C13.9289 1.61587 17.0444 1.61587 18.9639 3.55278C20.8788 5.48517 20.8788 8.61485 18.9639 10.5472L12.5785 16.9906C11.4427 18.1367 9.59783 18.1367 8.46203 16.9906C7.33071 15.849 7.33071 14.0015 8.46203 12.8599L12.0446 9.27733C12.396 8.92586 12.9659 8.92586 13.3173 9.27733C13.6688 9.6288 13.6688 10.1987 13.3173 10.5501C12.1247 11.7427 10.9244 12.9281 9.73932 14.1282C9.30454 14.5683 9.30495 15.284 9.74057 15.7236C10.1721 16.1591 10.8684 16.1591 11.3 15.7236L17.6853 9.28021C18.905 8.04943 18.905 6.05059 17.6853 4.8198Z" fill="#99A2AD"/>
</svg>
