<svg width="54" height="54" viewBox="0 0 54 54" fill="none" xmlns="http://www.w3.org/2000/svg">
<rect width="54" height="54" rx="27" fill="#AFCBEE"/>
<path d="M22.9828 21.8371C22.6664 21.5208 22.1536 21.5208 21.8372 21.8371C21.5209 22.1534 21.5209 22.6663 21.8372 22.9826L25.8545 26.9999L21.8373 31.0171C21.5209 31.3334 21.5209 31.8463 21.8373 32.1626C22.1536 32.4789 22.6664 32.4789 22.9828 32.1626L27 28.1454L31.0172 32.1626C31.3336 32.4789 31.8464 32.4789 32.1628 32.1626C32.4791 31.8463 32.4791 31.3334 32.1628 31.0171L28.1455 26.9999L32.1628 22.9826C32.4791 22.6663 32.4791 22.1534 32.1628 21.8371C31.8464 21.5208 31.3336 21.5208 31.0172 21.8371L27 25.8543L22.9828 21.8371Z" fill="#090707"/>
</svg>
