<svg width="20" height="20" viewBox="0 0 20 20" fill="none" xmlns="http://www.w3.org/2000/svg">
<path fill-rule="evenodd" clip-rule="evenodd" d="M10 10.3571C12.1697 10.3571 13.9286 8.59826 13.9286 6.42857C13.9286 4.25888 12.1697 2.5 10 2.5C7.83031 2.5 6.07143 4.25888 6.07143 6.42857C6.07143 8.59826 7.83031 10.3571 10 10.3571ZM10 8.92857C11.3807 8.92857 12.5 7.80928 12.5 6.42857C12.5 5.04786 11.3807 3.92857 10 3.92857C8.61929 3.92857 7.5 5.04786 7.5 6.42857C7.5 7.80928 8.61929 8.92857 10 8.92857Z" fill="white"/>
<path fill-rule="evenodd" clip-rule="evenodd" d="M13.5714 19.2857C15.9384 19.2857 17.8571 17.3669 17.8571 15C17.8571 12.6331 15.9384 10.7143 13.5714 10.7143C11.2045 10.7143 9.28571 12.6331 9.28571 15C9.28571 17.3669 11.2045 19.2857 13.5714 19.2857ZM15.6687 13.9361L14.4739 13.8188L13.9478 12.5773C13.7831 12.1886 13.361 12.1884 13.1961 12.5772L12.6698 13.8188L11.4752 13.9361C11.0576 13.9771 10.9306 14.3913 11.253 14.6654L12.1885 15.4608L11.8412 16.7567C11.7271 17.1823 12.0824 17.4388 12.4354 17.1837L13.572 16.3623L14.7086 17.1837C15.063 17.4399 15.4168 17.1822 15.3028 16.7567L14.9555 15.4608L15.8909 14.6654C16.212 14.3924 16.0845 13.9769 15.6687 13.9361Z" fill="white"/>
<path d="M8.55877 11.8349C8.63271 12.2224 8.37852 12.5965 7.99102 12.6704C6.368 12.9801 5.65363 13.6432 5.32727 14.1349C5.15746 14.3908 5.07545 14.6259 5.03582 14.7899C5.016 14.8719 5.007 14.9353 5.00297 14.9732C5.00103 14.9914 5.00027 15.0035 5 15.0087V15.3571C5 15.5543 5.1599 15.7142 5.35714 15.7142H7.5C7.89449 15.7142 8.21429 16.034 8.21429 16.4285C8.21429 16.823 7.89449 17.1428 7.5 17.1428H5.35714C4.37092 17.1428 3.57143 16.3433 3.57143 15.3571V14.9999H4.28571C3.57143 14.9999 3.57143 14.9988 3.57143 14.9988L3.57143 14.9977L3.57144 14.9952L3.57149 14.9896L3.57175 14.9757C3.572 14.9653 3.57245 14.9526 3.5732 14.9376C3.5747 14.9077 3.57744 14.8688 3.58241 14.8221C3.59233 14.7288 3.61123 14.6033 3.64722 14.4544C3.71919 14.1565 3.86039 13.7617 4.13702 13.3449C4.70351 12.4914 5.77486 11.639 7.72327 11.2672C8.11076 11.1933 8.48483 11.4474 8.55877 11.8349Z" fill="white"/>
</svg>
