<svg width="25" height="24" viewBox="0 0 25 24" fill="none" xmlns="http://www.w3.org/2000/svg">
<path d="M17.3722 2C19.1553 2 19.8018 2.18565 20.4537 2.53427C21.1055 2.88288 21.6171 3.39446 21.9657 4.04631C22.3143 4.69816 22.5 5.34473 22.5 7.12777V16.8722C22.5 18.6553 22.3143 19.3018 21.9657 19.9537C21.6171 20.6055 21.1055 21.1171 20.4537 21.4657C19.8018 21.8143 19.1553 22 17.3722 22H7.62777C5.84473 22 5.19816 21.8143 4.54631 21.4657C3.89446 21.1171 3.38288 20.6055 3.03427 19.9537C2.68565 19.3018 2.5 18.6553 2.5 16.8722V7.12777C2.5 5.34473 2.68565 4.69816 3.03427 4.04631C3.38288 3.39446 3.89446 2.88288 4.54631 2.53427C5.19816 2.18565 5.84473 2 7.62777 2H17.3722ZM17.9361 4H7.06389C6.17237 4 5.84908 4.09283 5.52315 4.26713C5.19723 4.44144 4.94144 4.69723 4.76713 5.02315C4.59283 5.34908 4.5 5.67237 4.5 6.56389V17.4361C4.5 18.3276 4.59283 18.6509 4.76713 18.9768C4.94144 19.3028 5.19723 19.5586 5.52315 19.7329C5.84908 19.9072 6.17237 20 7.06389 20H17.9361C18.8276 20 19.1509 19.9072 19.4768 19.7329C19.8028 19.5586 20.0586 19.3028 20.2329 18.9768C20.4072 18.6509 20.5 18.3276 20.5 17.4361V6.56389C20.5 5.67237 20.4072 5.34908 20.2329 5.02315C20.0586 4.69723 19.8028 4.44144 19.4768 4.26713C19.1509 4.09283 18.8276 4 17.9361 4Z" fill="#85878A"/>
</svg>
