<svg width="25" height="24" viewBox="0 0 25 24" fill="none" xmlns="http://www.w3.org/2000/svg">
<path fill-rule="evenodd" clip-rule="evenodd" d="M2.93597 4.18404C2.5 5.03969 2.5 6.15979 2.5 8.4V15.6C2.5 17.8402 2.5 18.9603 2.93597 19.816C3.31947 20.5686 3.93139 21.1805 4.68404 21.564C5.53969 22 6.65979 22 8.9 22H16.1C18.3402 22 19.4603 22 20.316 21.564C21.0686 21.1805 21.6805 20.5686 22.064 19.816C22.5 18.9603 22.5 17.8402 22.5 15.6V8.4C22.5 6.15979 22.5 5.03969 22.064 4.18404C21.6805 3.43139 21.0686 2.81947 20.316 2.43597C19.4603 2 18.3402 2 16.1 2H8.9C6.65979 2 5.53969 2 4.68404 2.43597C3.93139 2.81947 3.31947 3.43139 2.93597 4.18404ZM18.7071 9.20711C19.0976 8.81658 19.0976 8.18342 18.7071 7.79289C18.3166 7.40237 17.6834 7.40237 17.2929 7.79289L10.5 14.5858L7.70711 11.7929C7.31658 11.4024 6.68342 11.4024 6.29289 11.7929C5.90237 12.1834 5.90237 12.8166 6.29289 13.2071L9.79289 16.7071C10.1834 17.0976 10.8166 17.0976 11.2071 16.7071L18.7071 9.20711Z" fill="#AFCBEE"/>
</svg>
