<svg width="36" height="36" viewBox="0 0 36 36" fill="none" xmlns="http://www.w3.org/2000/svg">
<path fill-rule="evenodd" clip-rule="evenodd" d="M11.0714 7C13.8329 7 16.0714 9.23858 16.0714 12C16.0714 14.7614 13.8329 17 11.0714 17C8.31 17 6.07143 14.7614 6.07143 12C6.07143 9.23858 8.31 7 11.0714 7ZM11.0714 9.5C9.69072 9.5 8.57143 10.6193 8.57143 12C8.57143 13.3807 9.69072 14.5 11.0714 14.5C12.4521 14.5 13.5714 13.3807 13.5714 12C13.5714 10.6193 12.4521 9.5 11.0714 9.5Z" fill="white"/>
<path fill-rule="evenodd" clip-rule="evenodd" d="M11.0714 19.2514C6.12335 19.2514 2.75 21.5003 2.75 25.0014C2.75 27.4616 4.38349 28.8229 6.57143 28.8229H15.5714C17.7594 28.8229 19.3929 27.4616 19.3929 25.0014C19.3929 21.5003 16.0195 19.2514 11.0714 19.2514ZM11.0714 21.7514C14.8019 21.7514 16.8929 23.1454 16.8929 25.0014C16.8929 25.9698 16.4692 26.3229 15.5714 26.3229H6.57143C5.67365 26.3229 5.25 25.9698 5.25 25.0014C5.25 23.1454 7.34094 21.7514 11.0714 21.7514Z" fill="white"/>
<path d="M24.0714 19.2514C29.0195 19.2514 32.3929 21.5003 32.3929 25.0014C32.3929 27.3847 30.8599 28.7367 28.7749 28.8189L28.5714 28.8229H22.4962C21.8059 28.8229 21.2462 28.2632 21.2462 27.5729C21.2462 26.9256 21.7381 26.3933 22.3684 26.3293L22.4962 26.3229H28.5714C29.4692 26.3229 29.8929 25.9698 29.8929 25.0014C29.8929 23.1454 27.8019 21.7514 24.0714 21.7514C23.2233 21.7514 22.4453 21.8258 21.7489 21.9691C21.0727 22.1083 20.4118 21.6729 20.2726 20.9967C20.1335 20.3206 20.5688 19.6596 21.245 19.5204C22.1125 19.3419 23.0588 19.2514 24.0714 19.2514Z" fill="white"/>
<path fill-rule="evenodd" clip-rule="evenodd" d="M24.0714 7C26.8329 7 29.0714 9.23858 29.0714 12C29.0714 14.7614 26.8329 17 24.0714 17C21.31 17 19.0714 14.7614 19.0714 12C19.0714 9.23858 21.31 7 24.0714 7ZM24.0714 9.5C22.6907 9.5 21.5714 10.6193 21.5714 12C21.5714 13.3807 22.6907 14.5 24.0714 14.5C25.4521 14.5 26.5714 13.3807 26.5714 12C26.5714 10.6193 25.4521 9.5 24.0714 9.5Z" fill="white"/>
</svg>
