<svg width="33" height="27" viewBox="0 0 33 27" fill="none" xmlns="http://www.w3.org/2000/svg">
<path fill-rule="evenodd" clip-rule="evenodd" d="M9.42622 0.78125C12.4447 0.78125 14.8917 3.3696 14.8917 6.5625C14.8917 9.7554 12.4447 12.3438 9.42622 12.3438C6.40771 12.3438 3.96073 9.7554 3.96073 6.5625C3.96073 3.3696 6.40771 0.78125 9.42622 0.78125ZM9.42622 3.67188C7.91697 3.67188 6.69347 4.96605 6.69347 6.5625C6.69347 8.15895 7.91697 9.45312 9.42622 9.45312C10.9355 9.45312 12.159 8.15895 12.159 6.5625C12.159 4.96605 10.9355 3.67188 9.42622 3.67188Z" fill="white"/>
<path fill-rule="evenodd" clip-rule="evenodd" d="M9.42622 14.947C4.01748 14.947 0.330078 17.5473 0.330078 21.5954C0.330078 24.44 2.11564 26.0139 4.50728 26.0139H14.3452C16.7368 26.0139 18.5224 24.44 18.5224 21.5954C18.5224 17.5473 14.835 14.947 9.42622 14.947ZM9.42622 17.8376C13.504 17.8376 15.7896 19.4494 15.7896 21.5954C15.7896 22.7151 15.3265 23.1233 14.3452 23.1233H4.50728C3.52592 23.1233 3.06283 22.7151 3.06283 21.5954C3.06283 19.4494 5.34842 17.8376 9.42622 17.8376Z" fill="white"/>
<path d="M23.6365 14.947C29.0452 14.947 32.7327 17.5473 32.7327 21.5954C32.7327 24.3511 31.0569 25.9143 28.7779 26.0093L28.5555 26.0139H21.9147C21.1601 26.0139 20.5483 25.3668 20.5483 24.5686C20.5483 23.8203 21.086 23.2048 21.775 23.1308L21.9147 23.1233H28.5555C29.5368 23.1233 29.9999 22.7151 29.9999 21.5954C29.9999 19.4494 27.7143 17.8376 23.6365 17.8376C22.7094 17.8376 21.859 17.9236 21.0978 18.0893C20.3586 18.2502 19.6361 17.7468 19.484 16.965C19.3319 16.1831 19.8078 15.4189 20.547 15.258C21.4953 15.0516 22.5296 14.947 23.6365 14.947Z" fill="white"/>
<path fill-rule="evenodd" clip-rule="evenodd" d="M23.6365 0.78125C26.655 0.78125 29.102 3.3696 29.102 6.5625C29.102 9.7554 26.655 12.3438 23.6365 12.3438C20.618 12.3438 18.171 9.7554 18.171 6.5625C18.171 3.3696 20.618 0.78125 23.6365 0.78125ZM23.6365 3.67188C22.1273 3.67188 20.9038 4.96605 20.9038 6.5625C20.9038 8.15895 22.1273 9.45312 23.6365 9.45312C25.1458 9.45312 26.3693 8.15895 26.3693 6.5625C26.3693 4.96605 25.1458 3.67188 23.6365 3.67188Z" fill="white"/>
</svg>
