<svg width="36" height="36" viewBox="0 0 36 36" fill="none" xmlns="http://www.w3.org/2000/svg">
<path fill-rule="evenodd" clip-rule="evenodd" d="M16.0733 4.00001C16.0937 4.00001 16.1144 4.00002 16.1354 4.00002H19.8647C19.8856 4.00002 19.9063 4.00001 19.9267 4.00001C20.3249 3.99993 20.6182 3.99987 20.9021 4.03071C22.237 4.17569 23.4656 4.82665 24.3353 5.84971C24.5203 6.06731 24.6849 6.30998 24.9085 6.63951C24.92 6.65639 24.9316 6.6735 24.9433 6.69084L25.0447 6.8402C25.1466 6.9903 25.1722 7.02734 25.1955 7.05797C25.5068 7.46812 25.9829 7.72037 26.4971 7.74757C26.5355 7.7496 26.5805 7.75002 26.7619 7.75002L26.8222 7.75001C27.2172 7.74996 27.494 7.74992 27.7393 7.77087C30.5286 8.00907 32.741 10.2215 32.9792 13.0108C33.0001 13.256 33.0001 13.5328 33 13.9278L33 18.4049C33 20.1786 33 21.5861 32.9073 22.721C32.8124 23.8822 32.6143 24.8676 32.1553 25.7684C31.4123 27.2267 30.2267 28.4123 28.7684 29.1553C27.8676 29.6143 26.8822 29.8124 25.721 29.9073C24.5861 30 23.1786 30 21.4049 30H14.5951C12.8214 30 11.4139 30 10.279 29.9073C9.11784 29.8124 8.13238 29.6143 7.23158 29.1553C5.77333 28.4123 4.58773 27.2267 3.84471 25.7684C3.38573 24.8676 3.18759 23.8822 3.09272 22.721C2.99999 21.5861 3 20.1786 3.00001 18.4049L3.00001 13.9881C3.00001 13.9677 3.00001 13.9476 3 13.9278C2.99995 13.5328 2.99992 13.256 3.02086 13.0108C3.25906 10.2215 5.47146 8.00907 8.26076 7.77087C8.50602 7.74992 8.7828 7.74996 9.17778 7.75001C9.19759 7.75001 9.2177 7.75002 9.23812 7.75002C9.41952 7.75002 9.46456 7.7496 9.50297 7.74757C10.0171 7.72037 10.4932 7.46812 10.8045 7.05797C10.8278 7.02734 10.8534 6.9903 10.9553 6.84021L11.0567 6.69085C11.0684 6.67351 11.08 6.65642 11.0915 6.63955C11.3151 6.31 11.4797 6.06732 11.6647 5.84971C12.5344 4.82665 13.763 4.17569 15.0979 4.03071C15.3819 3.99987 15.6751 3.99993 16.0733 4.00001ZM16.1354 6.50002C15.6493 6.50002 15.5 6.50174 15.3679 6.51609C14.6686 6.59204 14.0251 6.93301 13.5695 7.4689C13.4834 7.57019 13.3981 7.69277 13.1252 8.0949L13.0088 8.26627C12.9292 8.38367 12.8643 8.47921 12.7959 8.56934C12.04 9.56541 10.8837 10.178 9.63503 10.2441C9.52203 10.2501 9.40656 10.25 9.26466 10.25C9.25592 10.25 9.24707 10.25 9.23812 10.25C8.75905 10.25 8.59811 10.2512 8.47348 10.2618C6.89691 10.3964 5.64643 11.6469 5.5118 13.2235C5.50115 13.3481 5.50001 13.5091 5.50001 13.9881V18.35C5.50001 20.1908 5.50098 21.4962 5.58442 22.5174C5.66666 23.524 5.82275 24.1438 6.07223 24.6335C6.57556 25.6213 7.37871 26.4245 8.36656 26.9278C8.85619 27.1773 9.47603 27.3334 10.4826 27.4156C11.5038 27.499 12.8092 27.5 14.65 27.5H21.35C23.1908 27.5 24.4962 27.499 25.5174 27.4156C26.524 27.3334 27.1438 27.1773 27.6335 26.9278C28.6213 26.4245 29.4245 25.6213 29.9278 24.6335C30.1773 24.1438 30.3334 23.524 30.4156 22.5174C30.499 21.4962 30.5 20.1908 30.5 18.35V13.9881C30.5 13.5091 30.4989 13.3481 30.4882 13.2235C30.3536 11.6469 29.1031 10.3964 27.5265 10.2618C27.4019 10.2512 27.241 10.25 26.7619 10.25L26.7354 10.25C26.5935 10.25 26.478 10.2501 26.365 10.2441C25.1163 10.178 23.96 9.56541 23.2041 8.56934C23.1357 8.4792 23.0708 8.38363 22.9911 8.26621L22.8749 8.09491C22.6019 7.69277 22.5166 7.57018 22.4305 7.4689C21.975 6.93301 21.3314 6.59204 20.6322 6.51609C20.5 6.50174 20.3507 6.50002 19.8647 6.50002H16.1354ZM18 14.5C16.067 14.5 14.5 16.067 14.5 18C14.5 19.933 16.067 21.5 18 21.5C19.933 21.5 21.5 19.933 21.5 18C21.5 16.067 19.933 14.5 18 14.5ZM12 18C12 14.6863 14.6863 12 18 12C21.3137 12 24 14.6863 24 18C24 21.3137 21.3137 24 18 24C14.6863 24 12 21.3137 12 18Z" fill="white"/>
</svg>
