<svg width="24" height="24" viewBox="0 0 24 24" fill="none" xmlns="http://www.w3.org/2000/svg">
<path d="M12 2C17.5228 2 22 6.47715 22 12C22 17.5228 17.5228 22 12 22C6.47715 22 2 17.5228 2 12C2 6.47715 6.47715 2 12 2ZM12.0037 4.00365C7.58537 4.00365 4.00365 7.58537 4.00365 12.0037C4.00365 16.4219 7.58537 20.0037 12.0037 20.0037C16.4219 20.0037 20.0037 16.4219 20.0037 12.0037C20.0037 7.58537 16.4219 4.00365 12.0037 4.00365ZM14.8892 14.0546C15.2104 13.6051 15.8351 13.5011 16.2847 13.8223C16.7343 14.1435 16.8384 14.7683 16.5172 15.2178C16.3397 15.4663 16.141 15.7009 15.9224 15.9195C13.7561 18.0858 10.2437 18.0856 8.07715 15.919C7.85878 15.7007 7.66029 15.4664 7.48286 15.2181C7.16157 14.7686 7.26546 14.1438 7.71491 13.8226C8.16435 13.5014 8.78916 13.6053 9.11046 14.0548C9.22398 14.2137 9.35126 14.3639 9.49177 14.5044C10.8769 15.8896 13.1226 15.8897 14.5076 14.5047C14.6482 14.3641 14.7756 14.2136 14.8892 14.0546ZM8.5 8.5C9.32843 8.5 10 9.17157 10 10C10 10.8284 9.32843 11.5 8.5 11.5C7.67157 11.5 7 10.8284 7 10C7 9.17157 7.67157 8.5 8.5 8.5ZM15.5 8.5C16.3284 8.5 17 9.17157 17 10C17 10.8284 16.3284 11.5 15.5 11.5C14.6716 11.5 14 10.8284 14 10C14 9.17157 14.6716 8.5 15.5 8.5Z" fill="#99A2AD"/>
</svg>
