<svg width="32" height="32" viewBox="0 0 32 33" fill="none" xmlns="http://www.w3.org/2000/svg">
<path fill-rule="evenodd" clip-rule="evenodd" d="M14.4631 1.00231L1.76723 13.3987C0.910559 14.2351 0.42334 15.4122 0.42334 16.6454V29.3012C0.42334 31.331 1.97892 32.9764 3.89783 32.9764H14.0871V23.4374C14.0871 22.3199 14.9435 21.4139 16 21.4139C17.0565 21.4139 17.9129 22.3199 17.9129 23.4374V32.9764H28.1022C30.0211 32.9764 31.5767 31.331 31.5767 29.3012V16.6454C31.5767 15.4122 31.0894 14.2351 30.2328 13.3987L26.0707 9.33479C26.0971 9.22256 26.1112 9.10514 26.1112 8.98426V3.78113L26.1041 3.63336C26.0341 2.90455 25.4523 2.33582 24.7448 2.33582C23.9902 2.33582 23.3784 2.98291 23.3784 3.78113V6.70602L17.5369 1.00231C16.6689 0.15483 15.3311 0.15483 14.4631 1.00231ZM3.6208 15.5227L16 3.43426L28.3792 15.5227C28.6754 15.8119 28.8439 16.219 28.8439 16.6454V29.3012L28.8359 29.4172C28.7829 29.7955 28.4746 30.0858 28.1022 30.0858H20.6457V23.4374C20.6457 20.7234 18.5657 18.5233 16 18.5233L15.7749 18.529C13.3137 18.6532 11.3543 20.8032 11.3543 23.4374V30.0858H3.89783C3.48818 30.0858 3.15609 29.7345 3.15609 29.3012V16.6454C3.15609 16.219 3.32456 15.8119 3.6208 15.5227Z" fill="white"/>
</svg>
