<svg width="93" height="94" viewBox="0 0 93 94" fill="none" xmlns="http://www.w3.org/2000/svg">
<path d="M77.5204 68.5727C77.5204 70.3087 76.1078 71.7213 74.3713 71.7213H18.962C17.2257 71.7213 15.8131 70.3087 15.8131 68.5727V25.4275C15.8131 23.6911 17.2257 22.2789 18.962 22.2789H74.3713C76.1078 22.2789 77.5204 23.6911 77.5204 25.4275V68.5727ZM74.3713 20.8789H18.962C16.4537 20.8789 14.4131 22.9192 14.4131 25.4275V68.5727C14.4131 71.0811 16.4537 73.1213 18.962 73.1213H74.3713C76.8796 73.1213 78.9204 71.0811 78.9204 68.5727V25.4275C78.9204 22.9192 76.8796 20.8789 74.3713 20.8789Z" fill="white"/>
<path d="M41.3877 44.7852C40.1645 44.7852 39.1729 45.7769 39.1729 47C39.1729 48.2232 40.1645 49.2148 41.3877 49.2148C42.611 49.2148 43.6026 48.2232 43.6026 47C43.6026 45.7769 42.611 44.7852 41.3877 44.7852Z" fill="white"/>
<path d="M47.2293 38.5806C46.7523 38.1956 46.249 37.8404 45.7306 37.475C46.3472 37.6276 46.9325 37.8927 47.4799 38.2203C48.0263 38.5502 48.5336 38.9488 48.9867 39.4014C49.4399 39.8541 49.8389 40.3614 50.1688 40.9078C50.4959 41.4552 50.761 42.0409 50.9136 42.6578C50.5473 42.1394 50.1917 41.6363 49.8071 41.1594C49.4249 40.681 49.0199 40.2274 48.591 39.7976C48.1617 39.3678 47.7076 38.9628 47.2293 38.5806ZM41.3881 54.1868C37.4189 54.1868 34.2013 50.9692 34.2013 47.0002C34.2013 43.0312 37.4189 39.8135 41.3881 39.8135C45.3572 39.8135 48.5747 43.0312 48.5747 47.0002C48.5747 50.9692 45.3572 54.1868 41.3881 54.1868ZM35.2963 55.78C34.7497 55.4506 34.2426 55.0516 33.7895 54.5989C33.3362 54.1462 32.9374 53.639 32.6076 53.0925C32.28 52.5451 32.0151 51.9594 31.8628 51.3425C32.2288 51.861 32.5844 52.364 32.9692 52.841C33.3514 53.3193 33.7563 53.7729 34.1853 54.2027C34.6147 54.6325 35.0686 55.0376 35.5467 55.4198C36.0239 55.8048 36.5272 56.1599 37.0456 56.5258C36.4289 56.3727 35.8438 56.1076 35.2963 55.78ZM34.4774 57.8226C33.6723 57.3564 32.9267 56.782 32.2664 56.1216C31.606 55.4622 31.0311 54.7165 30.5649 53.9115C30.101 53.1056 29.7391 52.2413 29.535 51.3425C29.9599 52.1592 30.4151 52.9408 30.9358 53.674C31.4541 54.408 32.031 55.094 32.6623 55.7259C33.2939 56.3578 33.9801 56.9346 34.7139 57.453C35.447 57.9738 36.2289 58.4288 37.0456 58.8535C36.1471 58.6486 35.2831 58.2865 34.4774 57.8226ZM33.6877 59.7677C32.634 59.1792 31.66 58.4405 30.8036 57.5846C29.947 56.7288 29.2084 55.7548 28.6197 54.7011C28.0327 53.6474 27.5912 52.5134 27.3518 51.3425C27.8143 52.4429 28.354 53.4929 28.9966 54.4734C29.6372 55.4538 30.3755 56.3638 31.1995 57.1889C32.0238 58.0135 32.9341 58.7518 33.9147 59.3925C34.8948 60.0351 35.9451 60.5746 37.0456 61.0366C35.8753 60.7962 34.7416 60.3548 33.6877 59.7677ZM32.9533 61.5653C31.6685 60.8676 30.4825 59.9796 29.4455 58.9426C28.4081 57.9062 27.52 56.7204 26.8223 55.4352C26.1259 54.1504 25.6157 52.7663 25.3519 51.3425C25.8409 52.7038 26.4511 54.0044 27.2031 55.2144C27.9528 56.4245 28.839 57.5436 29.8413 58.5469C30.8441 59.5498 31.9633 60.436 33.1736 61.1859C34.3834 61.9382 35.6841 62.5481 37.0456 63.0362C35.6223 62.7721 34.2382 62.2616 32.9533 61.5653ZM32.2278 63.3349C30.7146 62.5322 29.3194 61.4981 28.1046 60.2838C26.8897 59.0696 25.8556 57.6742 25.0528 56.1608C24.2513 54.6479 23.6771 53.016 23.3947 51.3425C23.904 52.96 24.5795 54.5079 25.4366 55.9452C26.2915 57.3826 27.3224 58.7088 28.5005 59.8876C29.6791 61.0664 31.0051 62.0973 32.4428 62.9522C33.8799 63.8095 35.4281 64.4848 37.0456 64.9934C35.3724 64.7106 33.7409 64.1362 32.2278 63.3349ZM48.2989 36.1777C49.1039 36.6439 49.8496 37.2184 50.5099 37.8782C51.1703 38.5381 51.7452 39.2838 52.2114 40.0893C52.6753 40.8948 53.0369 41.759 53.2413 42.6578C52.8162 41.8412 52.3612 41.0595 51.8404 40.3264C51.3219 39.5928 50.7451 38.9063 50.1137 38.2744C49.4823 37.6426 48.7963 37.0658 48.0623 36.5473C47.3291 36.0265 46.5473 35.5715 45.7306 35.1468C46.629 35.3517 47.4929 35.7138 48.2989 36.1777ZM49.0885 34.2326C50.1422 34.8211 51.1161 35.5598 51.9725 36.4157C52.8293 37.2716 53.568 38.2455 54.1565 39.2992C54.7435 40.353 55.185 41.487 55.4244 42.6578C54.9619 41.5574 54.422 40.5074 53.7794 39.527C53.1391 38.5465 52.4009 37.6365 51.5767 36.8114C50.7521 35.9868 49.8421 35.2486 48.8617 34.6083C47.8812 33.9652 46.8312 33.4258 45.7306 32.9638C46.9007 33.2041 48.0347 33.6456 49.0885 34.2326ZM49.823 32.435C51.1077 33.1327 52.2935 34.0208 53.3305 35.0577C54.3679 36.0942 55.2559 37.28 55.9541 38.5652C56.6503 39.8499 57.1604 41.234 57.4241 42.6578C56.9355 41.2966 56.3251 39.996 55.5733 38.7859C54.8233 37.5758 53.9371 36.4568 52.9347 35.4534C51.9323 34.4506 50.8128 33.5644 49.6027 32.8144C48.3927 32.0622 47.0921 31.4522 45.7306 30.9641C47.1541 31.2282 48.5378 31.7388 49.823 32.435ZM50.5482 30.6654C52.0616 31.4681 53.4569 32.5022 54.6717 33.7165C55.8864 34.9308 56.9205 36.3261 57.7232 37.8395C58.5249 39.3524 59.0989 40.9844 59.3817 42.6578C58.8721 41.0404 58.1969 39.4924 57.3396 38.0551C56.4847 36.6178 55.4538 35.2915 54.2755 34.1127C53.0971 32.9339 51.7709 31.903 50.3335 31.0481C48.8962 30.1908 47.3483 29.5156 45.7306 29.0069C47.4038 29.2897 49.0353 29.8642 50.5482 30.6654ZM56.4553 57.1894C56.4553 59.1316 54.8751 60.7118 52.9333 60.7118C50.9911 60.7118 49.4109 59.1316 49.4109 57.1894C49.4109 55.2471 50.9911 53.6674 52.9333 53.6674C53.1597 53.6674 53.3832 53.6884 53.6016 53.7304L62.2965 44.776C61.1854 34.2098 52.2487 25.9754 41.3881 25.9754C29.7764 25.9754 20.3633 35.3886 20.3633 47.0002C20.3633 58.6118 29.7764 68.0249 41.3881 68.0249C51.8852 68.0249 60.5853 60.3324 62.1589 50.2771L56.3344 56.2752C56.4147 56.572 56.4553 56.8795 56.4553 57.1894Z" fill="#4F82BF"/>
<path d="M72.2053 25.9755H65.265C64.8427 25.9755 64.5001 26.318 64.5001 26.7404V29.6024C64.5001 30.0248 64.8427 30.3673 65.265 30.3673H68.0351V40.5402L53.9376 55.0586C53.6329 54.9149 53.2922 54.8337 52.9329 54.8337C51.6318 54.8337 50.5771 55.8884 50.5771 57.1894C50.5771 58.4905 51.6318 59.5452 52.9329 59.5452C54.2335 59.5452 55.2881 58.4905 55.2881 57.1894C55.2881 56.7582 55.1719 56.3541 54.9694 56.006L69.2373 41.3116C69.3642 41.1809 69.4351 41.0059 69.4351 40.8239V30.3673H72.2053C72.6276 30.3673 72.9701 30.0248 72.9701 29.6024V26.7404C72.9701 26.318 72.6276 25.9755 72.2053 25.9755Z" fill="white"/>
<path d="M68.7353 53.9338C67.3544 53.9338 66.2349 55.0533 66.2349 56.4347C66.2349 57.8155 67.3544 58.9351 68.7353 58.9351C70.1161 58.9351 71.2357 57.8155 71.2357 56.4347C71.2357 55.0533 70.1161 53.9338 68.7353 53.9338Z" fill="white"/>
<path d="M68.7353 63.0241C67.3544 63.0241 66.2349 64.1436 66.2349 65.5245C66.2349 66.9054 67.3544 68.0249 68.7353 68.0249C70.1161 68.0249 71.2357 66.9054 71.2357 65.5245C71.2357 64.1436 70.1161 63.0241 68.7353 63.0241Z" fill="white"/>
</svg>
