<svg width="12" height="12" viewBox="0 0 12 12" fill="none" xmlns="http://www.w3.org/2000/svg">
<g clip-path="url(#clip0_693_156)">
<path fill-rule="evenodd" clip-rule="evenodd" d="M11.1 6.00002C11.1 8.81668 8.81668 11.1 6.00002 11.1C3.18337 11.1 0.900024 8.81668 0.900024 6.00002C0.900024 3.18337 3.18337 0.900024 6.00002 0.900024C8.81668 0.900024 11.1 3.18337 11.1 6.00002ZM10.2 6.00002C10.2 8.31962 8.31962 10.2 6.00002 10.2C3.68043 10.2 1.80002 8.31962 1.80002 6.00002C1.80002 3.68043 3.68043 1.80002 6.00002 1.80002C8.31962 1.80002 10.2 3.68043 10.2 6.00002ZM6.00002 9.30002C7.82256 9.30002 9.30002 7.82256 9.30002 6.00002C9.30002 4.17748 7.82256 2.70002 6.00002 2.70002C4.17748 2.70002 2.70002 4.17748 2.70002 6.00002C2.70002 7.82256 4.17748 9.30002 6.00002 9.30002Z" fill="white"/>
</g>
<defs>
<clipPath id="clip0_693_156">
<rect width="12" height="12" fill="white"/>
</clipPath>
</defs>
</svg>
