<svg width="42" height="43" viewBox="0 0 42 43" fill="none" xmlns="http://www.w3.org/2000/svg">
<g opacity="0.5">
<path fill-rule="evenodd" clip-rule="evenodd" d="M19.125 7.25C12.2905 7.25 6.75 12.7905 6.75 19.625C6.75 26.4595 12.2905 32 19.125 32C22.1314 32 24.8875 30.9279 27.0316 29.1452L34.0807 36.1718C34.5208 36.6104 35.2331 36.6092 35.6717 36.1692C36.1104 35.7292 36.1092 35.0169 35.6692 34.5782L28.6247 27.5562C30.4197 25.4085 31.5 22.6429 31.5 19.625C31.5 12.7905 25.9595 7.25 19.125 7.25ZM9 19.625C9 14.0331 13.5331 9.5 19.125 9.5C24.7169 9.5 29.25 14.0331 29.25 19.625C29.25 25.2169 24.7169 29.75 19.125 29.75C13.5331 29.75 9 25.2169 9 19.625Z" fill="white"/>
</g>
</svg>
