<svg width="54" height="54" viewBox="0 0 54 54" fill="none" xmlns="http://www.w3.org/2000/svg">
<rect width="54" height="54" rx="27" fill="#AFCBEE"/>
<path d="M21.5494 30.1802C20.9606 31.757 20.5906 32.8647 20.4395 33.5032C19.9652 35.5076 19.6203 35.9591 21.3881 35.0065C23.1558 34.0539 31.7137 29.335 33.6231 28.2863C36.112 26.9193 36.1452 27.0261 33.4895 25.5746C31.4669 24.4691 23.0093 19.8733 21.3881 18.9709C19.7669 18.0685 19.9652 18.4698 20.4395 20.4742C20.5926 21.121 20.9679 22.2386 21.5655 23.8269C21.9816 24.9327 22.9428 25.7426 24.1031 25.9651L29.0655 26.9167C29.1119 26.9259 29.142 26.9706 29.1327 27.0165C29.1259 27.0501 29.0994 27.0764 29.0655 27.0831L24.0919 28.0338C22.9278 28.2563 21.9641 29.0699 21.5494 30.1802Z" fill="#090707"/>
</svg>
