<svg width="22" height="22" viewBox="0 0 22 22" fill="none" xmlns="http://www.w3.org/2000/svg">
<path d="M5.54941 14.1802C4.96056 15.757 4.59059 16.8647 4.43951 17.5032C3.96522 19.5076 3.62035 19.9591 5.38809 19.0065C7.15584 18.0539 15.7137 13.335 17.6231 12.2863C20.112 10.9193 20.1452 11.0261 17.4895 9.57459C15.4669 8.46909 7.0093 3.87328 5.38809 2.9709C3.76688 2.06851 3.96522 2.46979 4.43951 4.47424C4.59255 5.12104 4.96789 6.23859 5.56553 7.82689C5.98162 8.93268 6.94277 9.74256 8.10311 9.96507L13.0655 10.9167C13.1119 10.9259 13.142 10.9706 13.1327 11.0165C13.1259 11.0501 13.0994 11.0764 13.0655 11.0831L8.09192 12.0338C6.9278 12.2563 5.96405 13.0699 5.54941 14.1802Z" fill="#090707"/>
</svg>
