<svg width="38" height="38" viewBox="0 0 40 39" fill="none" xmlns="http://www.w3.org/2000/svg">
<g filter="url(#filter0_d_671_877)">
<mask id="path-1-outside-1_671_877" maskUnits="userSpaceOnUse" x="5.32422" y="5.1875" width="30" height="29" fill="black">
<rect fill="white" x="5.32422" y="5.1875" width="30" height="29"/>
<path fill-rule="evenodd" clip-rule="evenodd" d="M24.4848 9.23122C24.342 8.66426 24.0697 7.71083 23.3049 7.01405C22.6678 6.43369 21.855 6.19783 21.0102 6.19168C20.5815 6.1916 20.149 6.20855 19.7207 6.19069C19.5418 6.18323 18.4321 6.13696 17.4997 6.87738C16.6014 7.5906 16.3063 8.64708 16.1591 9.23122C16.1065 9.44016 16.0124 9.70475 15.8867 9.97598C15.6014 10.0985 15.3222 10.2325 15.0498 10.3773C14.7658 10.3038 14.5071 10.2119 14.3145 10.1229C13.7659 9.86941 12.764 9.43731 11.6509 9.679C10.4863 9.93188 9.82129 10.8187 9.71221 10.9642C9.47762 11.277 9.21645 11.573 8.96924 11.876C8.92877 11.9256 8.09348 12.7907 8.08587 14.0628C8.07899 15.2134 8.72374 16.1077 9.08554 16.5849C9.22214 16.765 9.37657 17.0165 9.51348 17.296C9.43772 17.5757 9.37265 17.8597 9.31873 18.1474C9.07588 18.3347 8.831 18.4898 8.63198 18.5906C8.09679 18.8617 7.12844 19.3818 6.6291 20.4135C6.10471 21.4969 6.40568 22.5783 6.45263 22.747C6.5587 23.1281 6.64948 23.5203 6.72291 23.909C6.75612 24.0848 6.96324 25.181 7.90604 25.9211C8.80349 26.6256 9.89664 26.6723 10.4989 26.6832C10.7184 26.6871 11.0013 26.7187 11.2976 26.7795C11.4778 27.0231 11.6676 27.2592 11.8664 27.487C11.8581 27.7734 11.8266 28.0399 11.7832 28.2429C11.658 28.8296 11.4548 29.9122 11.9504 30.951C12.466 32.0316 13.4925 32.4754 13.6535 32.5449C14.0189 32.7029 14.3832 32.8801 14.7341 33.0681C14.8944 33.154 15.8697 33.6763 17.0296 33.4177C18.1438 33.1693 18.8711 32.3542 19.2615 31.893C19.4083 31.7196 19.6224 31.5118 19.8688 31.3145C20.1697 31.3265 20.4743 31.3265 20.7751 31.3145C21.0216 31.5118 21.2356 31.7196 21.3824 31.893C21.7729 32.3542 22.5002 33.1693 23.6144 33.4177C24.7743 33.6763 25.7495 33.154 25.9099 33.0681C26.2609 32.8801 26.625 32.703 26.9905 32.5449C27.1514 32.4754 28.178 32.0316 28.6935 30.951C29.1892 29.9122 28.986 28.8296 28.8607 28.2429C28.8174 28.0399 28.7858 27.7734 28.7775 27.487C28.9764 27.2592 29.1662 27.0232 29.3463 26.7795C29.6427 26.7187 29.9256 26.6871 30.145 26.6832C30.7473 26.6723 31.8405 26.6256 32.7379 25.9211C33.6807 25.181 33.8878 24.0848 33.921 23.909C33.9945 23.5202 34.0852 23.1281 34.1913 22.747C34.2383 22.5782 34.5392 21.4969 34.0149 20.4134C33.5155 19.3818 32.5472 18.8617 32.012 18.5906C31.813 18.4898 31.5681 18.3348 31.3252 18.1474C31.2713 17.8597 31.2062 17.5757 31.1305 17.296C31.2674 17.0165 31.4218 16.765 31.5584 16.5849C31.9202 16.1077 32.565 15.2134 32.5581 14.0628C32.5505 12.7907 31.7152 11.9256 31.6747 11.876L30.9453 10.982C30.9001 10.9266 30.227 9.94693 28.993 9.679C27.88 9.43731 26.878 9.86941 26.3294 10.1229C26.1368 10.2119 25.8782 10.3038 25.5941 10.3773C25.3218 10.2325 25.0426 10.0985 24.7572 9.97598C24.6316 9.70475 24.5375 9.44016 24.4848 9.23122ZM29.0082 12.5624L29.7376 13.4564C30.1023 13.9034 30.2847 14.127 29.5663 15.0744C29.162 15.6077 28.7305 16.3973 28.4802 17.2097C28.7365 17.8991 28.9065 18.63 28.9774 19.3894C29.5588 20.004 30.2882 20.5199 30.8823 20.8208C31.9465 21.3598 31.8813 21.64 31.7509 22.2005L31.4902 23.3214C31.3598 23.8819 31.2947 24.1621 30.1001 24.1836C29.4397 24.1954 28.5668 24.3391 27.7787 24.6327C27.3784 25.2939 26.8914 25.8975 26.3333 26.428C26.224 27.2534 26.2794 28.1258 26.4158 28.7648C26.6635 29.9249 26.4031 30.051 25.8822 30.3031L24.8404 30.8074C24.3196 31.0596 24.0591 31.1856 23.2906 30.2777C22.8597 29.7687 22.1851 29.1763 21.4471 28.7519C20.7105 28.8464 19.9335 28.8464 19.1968 28.7519C18.4589 29.1763 17.7843 29.7687 17.3534 30.2777C16.5848 31.1856 16.3244 31.0596 15.8035 30.8074L14.7618 30.3031C14.2409 30.051 13.9805 29.9249 14.2281 28.7648C14.3645 28.1258 14.42 27.2534 14.3106 26.428C13.7525 25.8975 13.2655 25.2939 12.8652 24.6327C12.0772 24.3391 11.2043 24.1954 10.5438 24.1836C9.34929 24.1621 9.28411 23.8819 9.15374 23.3214L8.89301 22.2005C8.76265 21.64 8.69747 21.3598 9.76163 20.8208C10.3557 20.5199 11.0852 20.004 11.6666 19.3894C11.7374 18.63 11.9075 17.8991 12.1637 17.2097C11.9135 16.3973 11.482 15.6077 11.0777 15.0744C10.3593 14.127 10.5416 13.9034 10.9063 13.4564L11.6357 12.5624C12.0004 12.1154 12.1828 11.8919 13.2659 12.3923C13.8595 12.6666 14.6978 12.9153 15.5286 12.9966C16.1695 12.5753 16.87 12.2361 17.6148 11.9941C18.0832 11.2962 18.4226 10.4804 18.5834 9.84184C18.8732 8.69144 19.1629 8.69144 19.7425 8.69144L21.0008 8.69167C21.5151 8.69542 21.7878 8.75911 22.0606 9.84184C22.2214 10.4804 22.5608 11.2962 23.0292 11.9941C23.774 12.2361 24.4744 12.5753 25.1154 12.9966C25.9461 12.9153 26.7845 12.6666 27.3781 12.3923C28.4612 11.8919 28.6435 12.1154 29.0082 12.5624Z"/>
<path fill-rule="evenodd" clip-rule="evenodd" d="M26.322 20.1914C26.322 23.5051 23.6357 26.1914 20.322 26.1914C17.0083 26.1914 14.322 23.5051 14.322 20.1914C14.322 16.8777 17.0083 14.1914 20.322 14.1914C23.6357 14.1914 26.322 16.8777 26.322 20.1914ZM20.322 23.6914C22.255 23.6914 23.822 22.1244 23.822 20.1914C23.822 18.2584 22.255 16.6914 20.322 16.6914C18.389 16.6914 16.822 18.2584 16.822 20.1914C16.822 22.1244 18.389 23.6914 20.322 23.6914Z"/>
</mask>
<path fill-rule="evenodd" clip-rule="evenodd" d="M24.4848 9.23122C24.342 8.66426 24.0697 7.71083 23.3049 7.01405C22.6678 6.43369 21.855 6.19783 21.0102 6.19168C20.5815 6.1916 20.149 6.20855 19.7207 6.19069C19.5418 6.18323 18.4321 6.13696 17.4997 6.87738C16.6014 7.5906 16.3063 8.64708 16.1591 9.23122C16.1065 9.44016 16.0124 9.70475 15.8867 9.97598C15.6014 10.0985 15.3222 10.2325 15.0498 10.3773C14.7658 10.3038 14.5071 10.2119 14.3145 10.1229C13.7659 9.86941 12.764 9.43731 11.6509 9.679C10.4863 9.93188 9.82129 10.8187 9.71221 10.9642C9.47762 11.277 9.21645 11.573 8.96924 11.876C8.92877 11.9256 8.09348 12.7907 8.08587 14.0628C8.07899 15.2134 8.72374 16.1077 9.08554 16.5849C9.22214 16.765 9.37657 17.0165 9.51348 17.296C9.43772 17.5757 9.37265 17.8597 9.31873 18.1474C9.07588 18.3347 8.831 18.4898 8.63198 18.5906C8.09679 18.8617 7.12844 19.3818 6.6291 20.4135C6.10471 21.4969 6.40568 22.5783 6.45263 22.747C6.5587 23.1281 6.64948 23.5203 6.72291 23.909C6.75612 24.0848 6.96324 25.181 7.90604 25.9211C8.80349 26.6256 9.89664 26.6723 10.4989 26.6832C10.7184 26.6871 11.0013 26.7187 11.2976 26.7795C11.4778 27.0231 11.6676 27.2592 11.8664 27.487C11.8581 27.7734 11.8266 28.0399 11.7832 28.2429C11.658 28.8296 11.4548 29.9122 11.9504 30.951C12.466 32.0316 13.4925 32.4754 13.6535 32.5449C14.0189 32.7029 14.3832 32.8801 14.7341 33.0681C14.8944 33.154 15.8697 33.6763 17.0296 33.4177C18.1438 33.1693 18.8711 32.3542 19.2615 31.893C19.4083 31.7196 19.6224 31.5118 19.8688 31.3145C20.1697 31.3265 20.4743 31.3265 20.7751 31.3145C21.0216 31.5118 21.2356 31.7196 21.3824 31.893C21.7729 32.3542 22.5002 33.1693 23.6144 33.4177C24.7743 33.6763 25.7495 33.154 25.9099 33.0681C26.2609 32.8801 26.625 32.703 26.9905 32.5449C27.1514 32.4754 28.178 32.0316 28.6935 30.951C29.1892 29.9122 28.986 28.8296 28.8607 28.2429C28.8174 28.0399 28.7858 27.7734 28.7775 27.487C28.9764 27.2592 29.1662 27.0232 29.3463 26.7795C29.6427 26.7187 29.9256 26.6871 30.145 26.6832C30.7473 26.6723 31.8405 26.6256 32.7379 25.9211C33.6807 25.181 33.8878 24.0848 33.921 23.909C33.9945 23.5202 34.0852 23.1281 34.1913 22.747C34.2383 22.5782 34.5392 21.4969 34.0149 20.4134C33.5155 19.3818 32.5472 18.8617 32.012 18.5906C31.813 18.4898 31.5681 18.3348 31.3252 18.1474C31.2713 17.8597 31.2062 17.5757 31.1305 17.296C31.2674 17.0165 31.4218 16.765 31.5584 16.5849C31.9202 16.1077 32.565 15.2134 32.5581 14.0628C32.5505 12.7907 31.7152 11.9256 31.6747 11.876L30.9453 10.982C30.9001 10.9266 30.227 9.94693 28.993 9.679C27.88 9.43731 26.878 9.86941 26.3294 10.1229C26.1368 10.2119 25.8782 10.3038 25.5941 10.3773C25.3218 10.2325 25.0426 10.0985 24.7572 9.97598C24.6316 9.70475 24.5375 9.44016 24.4848 9.23122ZM29.0082 12.5624L29.7376 13.4564C30.1023 13.9034 30.2847 14.127 29.5663 15.0744C29.162 15.6077 28.7305 16.3973 28.4802 17.2097C28.7365 17.8991 28.9065 18.63 28.9774 19.3894C29.5588 20.004 30.2882 20.5199 30.8823 20.8208C31.9465 21.3598 31.8813 21.64 31.7509 22.2005L31.4902 23.3214C31.3598 23.8819 31.2947 24.1621 30.1001 24.1836C29.4397 24.1954 28.5668 24.3391 27.7787 24.6327C27.3784 25.2939 26.8914 25.8975 26.3333 26.428C26.224 27.2534 26.2794 28.1258 26.4158 28.7648C26.6635 29.9249 26.4031 30.051 25.8822 30.3031L24.8404 30.8074C24.3196 31.0596 24.0591 31.1856 23.2906 30.2777C22.8597 29.7687 22.1851 29.1763 21.4471 28.7519C20.7105 28.8464 19.9335 28.8464 19.1968 28.7519C18.4589 29.1763 17.7843 29.7687 17.3534 30.2777C16.5848 31.1856 16.3244 31.0596 15.8035 30.8074L14.7618 30.3031C14.2409 30.051 13.9805 29.9249 14.2281 28.7648C14.3645 28.1258 14.42 27.2534 14.3106 26.428C13.7525 25.8975 13.2655 25.2939 12.8652 24.6327C12.0772 24.3391 11.2043 24.1954 10.5438 24.1836C9.34929 24.1621 9.28411 23.8819 9.15374 23.3214L8.89301 22.2005C8.76265 21.64 8.69747 21.3598 9.76163 20.8208C10.3557 20.5199 11.0852 20.004 11.6666 19.3894C11.7374 18.63 11.9075 17.8991 12.1637 17.2097C11.9135 16.3973 11.482 15.6077 11.0777 15.0744C10.3593 14.127 10.5416 13.9034 10.9063 13.4564L11.6357 12.5624C12.0004 12.1154 12.1828 11.8919 13.2659 12.3923C13.8595 12.6666 14.6978 12.9153 15.5286 12.9966C16.1695 12.5753 16.87 12.2361 17.6148 11.9941C18.0832 11.2962 18.4226 10.4804 18.5834 9.84184C18.8732 8.69144 19.1629 8.69144 19.7425 8.69144L21.0008 8.69167C21.5151 8.69542 21.7878 8.75911 22.0606 9.84184C22.2214 10.4804 22.5608 11.2962 23.0292 11.9941C23.774 12.2361 24.4744 12.5753 25.1154 12.9966C25.9461 12.9153 26.7845 12.6666 27.3781 12.3923C28.4612 11.8919 28.6435 12.1154 29.0082 12.5624Z" fill="white"/>
<path fill-rule="evenodd" clip-rule="evenodd" d="M26.322 20.1914C26.322 23.5051 23.6357 26.1914 20.322 26.1914C17.0083 26.1914 14.322 23.5051 14.322 20.1914C14.322 16.8777 17.0083 14.1914 20.322 14.1914C23.6357 14.1914 26.322 16.8777 26.322 20.1914ZM20.322 23.6914C22.255 23.6914 23.822 22.1244 23.822 20.1914C23.822 18.2584 22.255 16.6914 20.322 16.6914C18.389 16.6914 16.822 18.2584 16.822 20.1914C16.822 22.1244 18.389 23.6914 20.322 23.6914Z" fill="white"/>
<path fill-rule="evenodd" clip-rule="evenodd" d="M24.4848 9.23122C24.342 8.66426 24.0697 7.71083 23.3049 7.01405C22.6678 6.43369 21.855 6.19783 21.0102 6.19168C20.5815 6.1916 20.149 6.20855 19.7207 6.19069C19.5418 6.18323 18.4321 6.13696 17.4997 6.87738C16.6014 7.5906 16.3063 8.64708 16.1591 9.23122C16.1065 9.44016 16.0124 9.70475 15.8867 9.97598C15.6014 10.0985 15.3222 10.2325 15.0498 10.3773C14.7658 10.3038 14.5071 10.2119 14.3145 10.1229C13.7659 9.86941 12.764 9.43731 11.6509 9.679C10.4863 9.93188 9.82129 10.8187 9.71221 10.9642C9.47762 11.277 9.21645 11.573 8.96924 11.876C8.92877 11.9256 8.09348 12.7907 8.08587 14.0628C8.07899 15.2134 8.72374 16.1077 9.08554 16.5849C9.22214 16.765 9.37657 17.0165 9.51348 17.296C9.43772 17.5757 9.37265 17.8597 9.31873 18.1474C9.07588 18.3347 8.831 18.4898 8.63198 18.5906C8.09679 18.8617 7.12844 19.3818 6.6291 20.4135C6.10471 21.4969 6.40568 22.5783 6.45263 22.747C6.5587 23.1281 6.64948 23.5203 6.72291 23.909C6.75612 24.0848 6.96324 25.181 7.90604 25.9211C8.80349 26.6256 9.89664 26.6723 10.4989 26.6832C10.7184 26.6871 11.0013 26.7187 11.2976 26.7795C11.4778 27.0231 11.6676 27.2592 11.8664 27.487C11.8581 27.7734 11.8266 28.0399 11.7832 28.2429C11.658 28.8296 11.4548 29.9122 11.9504 30.951C12.466 32.0316 13.4925 32.4754 13.6535 32.5449C14.0189 32.7029 14.3832 32.8801 14.7341 33.0681C14.8944 33.154 15.8697 33.6763 17.0296 33.4177C18.1438 33.1693 18.8711 32.3542 19.2615 31.893C19.4083 31.7196 19.6224 31.5118 19.8688 31.3145C20.1697 31.3265 20.4743 31.3265 20.7751 31.3145C21.0216 31.5118 21.2356 31.7196 21.3824 31.893C21.7729 32.3542 22.5002 33.1693 23.6144 33.4177C24.7743 33.6763 25.7495 33.154 25.9099 33.0681C26.2609 32.8801 26.625 32.703 26.9905 32.5449C27.1514 32.4754 28.178 32.0316 28.6935 30.951C29.1892 29.9122 28.986 28.8296 28.8607 28.2429C28.8174 28.0399 28.7858 27.7734 28.7775 27.487C28.9764 27.2592 29.1662 27.0232 29.3463 26.7795C29.6427 26.7187 29.9256 26.6871 30.145 26.6832C30.7473 26.6723 31.8405 26.6256 32.7379 25.9211C33.6807 25.181 33.8878 24.0848 33.921 23.909C33.9945 23.5202 34.0852 23.1281 34.1913 22.747C34.2383 22.5782 34.5392 21.4969 34.0149 20.4134C33.5155 19.3818 32.5472 18.8617 32.012 18.5906C31.813 18.4898 31.5681 18.3348 31.3252 18.1474C31.2713 17.8597 31.2062 17.5757 31.1305 17.296C31.2674 17.0165 31.4218 16.765 31.5584 16.5849C31.9202 16.1077 32.565 15.2134 32.5581 14.0628C32.5505 12.7907 31.7152 11.9256 31.6747 11.876L30.9453 10.982C30.9001 10.9266 30.227 9.94693 28.993 9.679C27.88 9.43731 26.878 9.86941 26.3294 10.1229C26.1368 10.2119 25.8782 10.3038 25.5941 10.3773C25.3218 10.2325 25.0426 10.0985 24.7572 9.97598C24.6316 9.70475 24.5375 9.44016 24.4848 9.23122ZM29.0082 12.5624L29.7376 13.4564C30.1023 13.9034 30.2847 14.127 29.5663 15.0744C29.162 15.6077 28.7305 16.3973 28.4802 17.2097C28.7365 17.8991 28.9065 18.63 28.9774 19.3894C29.5588 20.004 30.2882 20.5199 30.8823 20.8208C31.9465 21.3598 31.8813 21.64 31.7509 22.2005L31.4902 23.3214C31.3598 23.8819 31.2947 24.1621 30.1001 24.1836C29.4397 24.1954 28.5668 24.3391 27.7787 24.6327C27.3784 25.2939 26.8914 25.8975 26.3333 26.428C26.224 27.2534 26.2794 28.1258 26.4158 28.7648C26.6635 29.9249 26.4031 30.051 25.8822 30.3031L24.8404 30.8074C24.3196 31.0596 24.0591 31.1856 23.2906 30.2777C22.8597 29.7687 22.1851 29.1763 21.4471 28.7519C20.7105 28.8464 19.9335 28.8464 19.1968 28.7519C18.4589 29.1763 17.7843 29.7687 17.3534 30.2777C16.5848 31.1856 16.3244 31.0596 15.8035 30.8074L14.7618 30.3031C14.2409 30.051 13.9805 29.9249 14.2281 28.7648C14.3645 28.1258 14.42 27.2534 14.3106 26.428C13.7525 25.8975 13.2655 25.2939 12.8652 24.6327C12.0772 24.3391 11.2043 24.1954 10.5438 24.1836C9.34929 24.1621 9.28411 23.8819 9.15374 23.3214L8.89301 22.2005C8.76265 21.64 8.69747 21.3598 9.76163 20.8208C10.3557 20.5199 11.0852 20.004 11.6666 19.3894C11.7374 18.63 11.9075 17.8991 12.1637 17.2097C11.9135 16.3973 11.482 15.6077 11.0777 15.0744C10.3593 14.127 10.5416 13.9034 10.9063 13.4564L11.6357 12.5624C12.0004 12.1154 12.1828 11.8919 13.2659 12.3923C13.8595 12.6666 14.6978 12.9153 15.5286 12.9966C16.1695 12.5753 16.87 12.2361 17.6148 11.9941C18.0832 11.2962 18.4226 10.4804 18.5834 9.84184C18.8732 8.69144 19.1629 8.69144 19.7425 8.69144L21.0008 8.69167C21.5151 8.69542 21.7878 8.75911 22.0606 9.84184C22.2214 10.4804 22.5608 11.2962 23.0292 11.9941C23.774 12.2361 24.4744 12.5753 25.1154 12.9966C25.9461 12.9153 26.7845 12.6666 27.3781 12.3923C28.4612 11.8919 28.6435 12.1154 29.0082 12.5624Z" stroke="black" stroke-opacity="0.05" mask="url(#path-1-outside-1_671_877)"/>
<path fill-rule="evenodd" clip-rule="evenodd" d="M26.322 20.1914C26.322 23.5051 23.6357 26.1914 20.322 26.1914C17.0083 26.1914 14.322 23.5051 14.322 20.1914C14.322 16.8777 17.0083 14.1914 20.322 14.1914C23.6357 14.1914 26.322 16.8777 26.322 20.1914ZM20.322 23.6914C22.255 23.6914 23.822 22.1244 23.822 20.1914C23.822 18.2584 22.255 16.6914 20.322 16.6914C18.389 16.6914 16.822 18.2584 16.822 20.1914C16.822 22.1244 18.389 23.6914 20.322 23.6914Z" stroke="black" stroke-opacity="0.05" mask="url(#path-1-outside-1_671_877)"/>
</g>
<defs>
<filter id="filter0_d_671_877" x="0.824219" y="0.687256" width="38.9956" height="38.3018" filterUnits="userSpaceOnUse" color-interpolation-filters="sRGB">
<feFlood flood-opacity="0" result="BackgroundImageFix"/>
<feColorMatrix in="SourceAlpha" type="matrix" values="0 0 0 0 0 0 0 0 0 0 0 0 0 0 0 0 0 0 127 0" result="hardAlpha"/>
<feOffset/>
<feGaussianBlur stdDeviation="2.5"/>
<feColorMatrix type="matrix" values="0 0 0 0 0 0 0 0 0 0 0 0 0 0 0 0 0 0 0.16 0"/>
<feBlend mode="normal" in2="BackgroundImageFix" result="effect1_dropShadow_671_877"/>
<feBlend mode="normal" in="SourceGraphic" in2="effect1_dropShadow_671_877" result="shape"/>
</filter>
</defs>
</svg>
