<svg width="36" height="36" viewBox="0 0 40 39" fill="none" xmlns="http://www.w3.org/2000/svg">
<g filter="url(#filter0_d_503_538)">
<mask id="path-1-outside-1_503_538" maskUnits="userSpaceOnUse" x="5" y="4.5" width="30" height="29" fill="black">
<rect fill="white" x="5" y="4.5" width="30" height="29"/>
<path fill-rule="evenodd" clip-rule="evenodd" d="M24.1606 8.54372C24.0178 7.97676 23.7455 7.02333 22.9807 6.32655C22.3436 5.74619 21.5308 5.51033 20.6859 5.50418C20.2573 5.5041 19.8247 5.52105 19.3965 5.50319C19.2175 5.49573 18.1079 5.44946 17.1754 6.18988C16.2772 6.9031 15.982 7.95958 15.8349 8.54372C15.7823 8.75266 15.6882 9.01725 15.5625 9.28848C15.2772 9.41104 14.998 9.54501 14.7256 9.68982C14.4416 9.61634 14.1829 9.52438 13.9903 9.4354C13.4417 9.18191 12.4398 8.74981 11.3267 8.9915C10.1621 9.24438 9.49707 10.1312 9.38799 10.2767C9.1534 10.5895 8.89223 10.8855 8.64502 11.1885C8.60455 11.2381 7.76926 12.1032 7.76165 13.3753C7.75477 14.5259 8.39952 15.4202 8.76133 15.8974C8.89792 16.0775 9.05235 16.329 9.18926 16.6085C9.1135 16.8882 9.04843 17.1722 8.99451 17.4599C8.75167 17.6472 8.50678 17.8023 8.30776 17.9031C7.77257 18.1742 6.80422 18.6943 6.30488 19.726C5.78049 20.8094 6.08146 21.8908 6.12841 22.0595C6.23448 22.4406 6.32526 22.8328 6.39869 23.2215C6.4319 23.3973 6.63903 24.4935 7.58182 25.2336C8.47927 25.9381 9.57242 25.9848 10.1747 25.9957C10.3942 25.9996 10.6771 26.0312 10.9734 26.092C11.1535 26.3356 11.3433 26.5717 11.5422 26.7995C11.5339 27.0859 11.5023 27.3524 11.459 27.5554C11.3337 28.1421 11.1306 29.2247 11.6262 30.2635C12.1418 31.3441 13.1683 31.7879 13.3292 31.8574C13.6947 32.0154 14.0589 32.1926 14.4099 32.3806C14.5702 32.4665 15.5455 32.9888 16.7054 32.7302C17.8196 32.4818 18.5468 31.6667 18.9373 31.2055C19.0841 31.0321 19.2981 30.8243 19.5446 30.627C19.8454 30.639 20.1501 30.639 20.4509 30.627C20.6974 30.8243 20.9114 31.0321 21.0582 31.2055C21.4487 31.6667 22.1759 32.4818 23.2901 32.7302C24.45 32.9888 25.4253 32.4665 25.5857 32.3806C25.9367 32.1926 26.3008 32.0155 26.6663 31.8574C26.8272 31.7879 27.8538 31.3441 28.3693 30.2635C28.865 29.2247 28.6618 28.1421 28.5365 27.5554C28.4932 27.3524 28.4616 27.0859 28.4533 26.7995C28.6522 26.5717 28.842 26.3357 29.0221 26.092C29.3185 26.0312 29.6014 25.9996 29.8208 25.9957C30.4231 25.9848 31.5162 25.9381 32.4137 25.2336C33.3565 24.4935 33.5636 23.3973 33.5968 23.2215C33.6703 22.8327 33.761 22.4406 33.8671 22.0595C33.9141 21.8907 34.215 20.8094 33.6906 19.7259C33.1913 18.6943 32.2229 18.1742 31.6878 17.9031C31.4887 17.8023 31.2439 17.6473 31.001 17.4599C30.9471 17.1722 30.882 16.8882 30.8063 16.6085C30.9432 16.329 31.0976 16.0775 31.2342 15.8974C31.596 15.4202 32.2407 14.5259 32.2339 13.3753C32.2263 12.1032 31.391 11.2381 31.3505 11.1885L30.6211 10.2945C30.5759 10.2391 29.9027 9.25943 28.6688 8.9915C27.5558 8.74981 26.5538 9.18191 26.0052 9.4354C25.8126 9.52438 25.5539 9.61634 25.2699 9.68982C24.9975 9.54501 24.7184 9.41103 24.433 9.28848C24.3073 9.01725 24.2132 8.75266 24.1606 8.54372ZM28.684 11.8749L29.4134 12.7689C29.7781 13.2159 29.9605 13.4395 29.2421 14.3869C28.8377 14.9202 28.4063 15.7098 28.156 16.5222C28.4123 17.2116 28.5823 17.9425 28.6532 18.7019C29.2346 19.3165 29.964 19.8324 30.5581 20.1333C31.6223 20.6723 31.5571 20.9525 31.4267 21.513L31.166 22.6339C31.0356 23.1944 30.9704 23.4746 29.7759 23.4961C29.1155 23.5079 28.2425 23.6516 27.4545 23.9452C27.0542 24.6064 26.5672 25.21 26.0091 25.7405C25.8997 26.5659 25.9552 27.4383 26.0916 28.0773C26.3393 29.2374 26.0788 29.3635 25.558 29.6156L24.5162 30.1199C23.9953 30.3721 23.7349 30.4981 22.9664 29.5902C22.5354 29.0812 21.8609 28.4888 21.1229 28.0644C20.3863 28.1589 19.6092 28.1589 18.8726 28.0644C18.1347 28.4888 17.4601 29.0812 17.0291 29.5902C16.2606 30.4981 16.0002 30.3721 15.4793 30.1199L14.4376 29.6156C13.9167 29.3635 13.6562 29.2374 13.9039 28.0773C14.0403 27.4383 14.0958 26.5659 13.9864 25.7405C13.4283 25.21 12.9413 24.6064 12.541 23.9452C11.753 23.6516 10.88 23.5079 10.2196 23.4961C9.02507 23.4746 8.95989 23.1944 8.82952 22.6339L8.56879 21.513C8.43843 20.9525 8.37325 20.6723 9.43741 20.1333C10.0315 19.8324 10.7609 19.3165 11.3423 18.7019C11.4132 17.9425 11.5833 17.2116 11.8395 16.5222C11.5893 15.7098 11.1578 14.9202 10.7534 14.3869C10.035 13.4395 10.2174 13.2159 10.5821 12.7689L11.3115 11.8749C11.6762 11.4279 11.8586 11.2044 12.9417 11.7048C13.5352 11.9791 14.3736 12.2278 15.2044 12.3091C15.8453 11.8878 16.5458 11.5486 17.2906 11.3066C17.759 10.6087 18.0983 9.7929 18.2592 9.15434C18.5489 8.00394 18.8387 8.00394 19.4182 8.00394L20.6766 8.00417C21.1909 8.00792 21.4636 8.07161 21.7363 9.15434C21.8972 9.7929 22.2366 10.6087 22.705 11.3066C23.4497 11.5486 24.1502 11.8878 24.7911 12.3091C25.6219 12.2278 26.4603 11.9791 27.0538 11.7048C28.1369 11.2044 28.3193 11.4279 28.684 11.8749Z"/>
<path fill-rule="evenodd" clip-rule="evenodd" d="M25.9978 19.5039C25.9978 22.8176 23.3115 25.5039 19.9978 25.5039C16.684 25.5039 13.9978 22.8176 13.9978 19.5039C13.9978 16.1902 16.684 13.5039 19.9978 13.5039C23.3115 13.5039 25.9978 16.1902 25.9978 19.5039ZM19.9978 23.0039C21.9308 23.0039 23.4978 21.4369 23.4978 19.5039C23.4978 17.5709 21.9308 16.0039 19.9978 16.0039C18.0648 16.0039 16.4978 17.5709 16.4978 19.5039C16.4978 21.4369 18.0648 23.0039 19.9978 23.0039Z"/>
</mask>
<path fill-rule="evenodd" clip-rule="evenodd" d="M24.1606 8.54372C24.0178 7.97676 23.7455 7.02333 22.9807 6.32655C22.3436 5.74619 21.5308 5.51033 20.6859 5.50418C20.2573 5.5041 19.8247 5.52105 19.3965 5.50319C19.2175 5.49573 18.1079 5.44946 17.1754 6.18988C16.2772 6.9031 15.982 7.95958 15.8349 8.54372C15.7823 8.75266 15.6882 9.01725 15.5625 9.28848C15.2772 9.41104 14.998 9.54501 14.7256 9.68982C14.4416 9.61634 14.1829 9.52438 13.9903 9.4354C13.4417 9.18191 12.4398 8.74981 11.3267 8.9915C10.1621 9.24438 9.49707 10.1312 9.38799 10.2767C9.1534 10.5895 8.89223 10.8855 8.64502 11.1885C8.60455 11.2381 7.76926 12.1032 7.76165 13.3753C7.75477 14.5259 8.39952 15.4202 8.76133 15.8974C8.89792 16.0775 9.05235 16.329 9.18926 16.6085C9.1135 16.8882 9.04843 17.1722 8.99451 17.4599C8.75167 17.6472 8.50678 17.8023 8.30776 17.9031C7.77257 18.1742 6.80422 18.6943 6.30488 19.726C5.78049 20.8094 6.08146 21.8908 6.12841 22.0595C6.23448 22.4406 6.32526 22.8328 6.39869 23.2215C6.4319 23.3973 6.63903 24.4935 7.58182 25.2336C8.47927 25.9381 9.57242 25.9848 10.1747 25.9957C10.3942 25.9996 10.6771 26.0312 10.9734 26.092C11.1535 26.3356 11.3433 26.5717 11.5422 26.7995C11.5339 27.0859 11.5023 27.3524 11.459 27.5554C11.3337 28.1421 11.1306 29.2247 11.6262 30.2635C12.1418 31.3441 13.1683 31.7879 13.3292 31.8574C13.6947 32.0154 14.0589 32.1926 14.4099 32.3806C14.5702 32.4665 15.5455 32.9888 16.7054 32.7302C17.8196 32.4818 18.5468 31.6667 18.9373 31.2055C19.0841 31.0321 19.2981 30.8243 19.5446 30.627C19.8454 30.639 20.1501 30.639 20.4509 30.627C20.6974 30.8243 20.9114 31.0321 21.0582 31.2055C21.4487 31.6667 22.1759 32.4818 23.2901 32.7302C24.45 32.9888 25.4253 32.4665 25.5857 32.3806C25.9367 32.1926 26.3008 32.0155 26.6663 31.8574C26.8272 31.7879 27.8538 31.3441 28.3693 30.2635C28.865 29.2247 28.6618 28.1421 28.5365 27.5554C28.4932 27.3524 28.4616 27.0859 28.4533 26.7995C28.6522 26.5717 28.842 26.3357 29.0221 26.092C29.3185 26.0312 29.6014 25.9996 29.8208 25.9957C30.4231 25.9848 31.5162 25.9381 32.4137 25.2336C33.3565 24.4935 33.5636 23.3973 33.5968 23.2215C33.6703 22.8327 33.761 22.4406 33.8671 22.0595C33.9141 21.8907 34.215 20.8094 33.6906 19.7259C33.1913 18.6943 32.2229 18.1742 31.6878 17.9031C31.4887 17.8023 31.2439 17.6473 31.001 17.4599C30.9471 17.1722 30.882 16.8882 30.8063 16.6085C30.9432 16.329 31.0976 16.0775 31.2342 15.8974C31.596 15.4202 32.2407 14.5259 32.2339 13.3753C32.2263 12.1032 31.391 11.2381 31.3505 11.1885L30.6211 10.2945C30.5759 10.2391 29.9027 9.25943 28.6688 8.9915C27.5558 8.74981 26.5538 9.18191 26.0052 9.4354C25.8126 9.52438 25.5539 9.61634 25.2699 9.68982C24.9975 9.54501 24.7184 9.41103 24.433 9.28848C24.3073 9.01725 24.2132 8.75266 24.1606 8.54372ZM28.684 11.8749L29.4134 12.7689C29.7781 13.2159 29.9605 13.4395 29.2421 14.3869C28.8377 14.9202 28.4063 15.7098 28.156 16.5222C28.4123 17.2116 28.5823 17.9425 28.6532 18.7019C29.2346 19.3165 29.964 19.8324 30.5581 20.1333C31.6223 20.6723 31.5571 20.9525 31.4267 21.513L31.166 22.6339C31.0356 23.1944 30.9704 23.4746 29.7759 23.4961C29.1155 23.5079 28.2425 23.6516 27.4545 23.9452C27.0542 24.6064 26.5672 25.21 26.0091 25.7405C25.8997 26.5659 25.9552 27.4383 26.0916 28.0773C26.3393 29.2374 26.0788 29.3635 25.558 29.6156L24.5162 30.1199C23.9953 30.3721 23.7349 30.4981 22.9664 29.5902C22.5354 29.0812 21.8609 28.4888 21.1229 28.0644C20.3863 28.1589 19.6092 28.1589 18.8726 28.0644C18.1347 28.4888 17.4601 29.0812 17.0291 29.5902C16.2606 30.4981 16.0002 30.3721 15.4793 30.1199L14.4376 29.6156C13.9167 29.3635 13.6562 29.2374 13.9039 28.0773C14.0403 27.4383 14.0958 26.5659 13.9864 25.7405C13.4283 25.21 12.9413 24.6064 12.541 23.9452C11.753 23.6516 10.88 23.5079 10.2196 23.4961C9.02507 23.4746 8.95989 23.1944 8.82952 22.6339L8.56879 21.513C8.43843 20.9525 8.37325 20.6723 9.43741 20.1333C10.0315 19.8324 10.7609 19.3165 11.3423 18.7019C11.4132 17.9425 11.5833 17.2116 11.8395 16.5222C11.5893 15.7098 11.1578 14.9202 10.7534 14.3869C10.035 13.4395 10.2174 13.2159 10.5821 12.7689L11.3115 11.8749C11.6762 11.4279 11.8586 11.2044 12.9417 11.7048C13.5352 11.9791 14.3736 12.2278 15.2044 12.3091C15.8453 11.8878 16.5458 11.5486 17.2906 11.3066C17.759 10.6087 18.0983 9.7929 18.2592 9.15434C18.5489 8.00394 18.8387 8.00394 19.4182 8.00394L20.6766 8.00417C21.1909 8.00792 21.4636 8.07161 21.7363 9.15434C21.8972 9.7929 22.2366 10.6087 22.705 11.3066C23.4497 11.5486 24.1502 11.8878 24.7911 12.3091C25.6219 12.2278 26.4603 11.9791 27.0538 11.7048C28.1369 11.2044 28.3193 11.4279 28.684 11.8749Z" fill="white"/>
<path fill-rule="evenodd" clip-rule="evenodd" d="M25.9978 19.5039C25.9978 22.8176 23.3115 25.5039 19.9978 25.5039C16.684 25.5039 13.9978 22.8176 13.9978 19.5039C13.9978 16.1902 16.684 13.5039 19.9978 13.5039C23.3115 13.5039 25.9978 16.1902 25.9978 19.5039ZM19.9978 23.0039C21.9308 23.0039 23.4978 21.4369 23.4978 19.5039C23.4978 17.5709 21.9308 16.0039 19.9978 16.0039C18.0648 16.0039 16.4978 17.5709 16.4978 19.5039C16.4978 21.4369 18.0648 23.0039 19.9978 23.0039Z" fill="white"/>
<path fill-rule="evenodd" clip-rule="evenodd" d="M24.1606 8.54372C24.0178 7.97676 23.7455 7.02333 22.9807 6.32655C22.3436 5.74619 21.5308 5.51033 20.6859 5.50418C20.2573 5.5041 19.8247 5.52105 19.3965 5.50319C19.2175 5.49573 18.1079 5.44946 17.1754 6.18988C16.2772 6.9031 15.982 7.95958 15.8349 8.54372C15.7823 8.75266 15.6882 9.01725 15.5625 9.28848C15.2772 9.41104 14.998 9.54501 14.7256 9.68982C14.4416 9.61634 14.1829 9.52438 13.9903 9.4354C13.4417 9.18191 12.4398 8.74981 11.3267 8.9915C10.1621 9.24438 9.49707 10.1312 9.38799 10.2767C9.1534 10.5895 8.89223 10.8855 8.64502 11.1885C8.60455 11.2381 7.76926 12.1032 7.76165 13.3753C7.75477 14.5259 8.39952 15.4202 8.76133 15.8974C8.89792 16.0775 9.05235 16.329 9.18926 16.6085C9.1135 16.8882 9.04843 17.1722 8.99451 17.4599C8.75167 17.6472 8.50678 17.8023 8.30776 17.9031C7.77257 18.1742 6.80422 18.6943 6.30488 19.726C5.78049 20.8094 6.08146 21.8908 6.12841 22.0595C6.23448 22.4406 6.32526 22.8328 6.39869 23.2215C6.4319 23.3973 6.63903 24.4935 7.58182 25.2336C8.47927 25.9381 9.57242 25.9848 10.1747 25.9957C10.3942 25.9996 10.6771 26.0312 10.9734 26.092C11.1535 26.3356 11.3433 26.5717 11.5422 26.7995C11.5339 27.0859 11.5023 27.3524 11.459 27.5554C11.3337 28.1421 11.1306 29.2247 11.6262 30.2635C12.1418 31.3441 13.1683 31.7879 13.3292 31.8574C13.6947 32.0154 14.0589 32.1926 14.4099 32.3806C14.5702 32.4665 15.5455 32.9888 16.7054 32.7302C17.8196 32.4818 18.5468 31.6667 18.9373 31.2055C19.0841 31.0321 19.2981 30.8243 19.5446 30.627C19.8454 30.639 20.1501 30.639 20.4509 30.627C20.6974 30.8243 20.9114 31.0321 21.0582 31.2055C21.4487 31.6667 22.1759 32.4818 23.2901 32.7302C24.45 32.9888 25.4253 32.4665 25.5857 32.3806C25.9367 32.1926 26.3008 32.0155 26.6663 31.8574C26.8272 31.7879 27.8538 31.3441 28.3693 30.2635C28.865 29.2247 28.6618 28.1421 28.5365 27.5554C28.4932 27.3524 28.4616 27.0859 28.4533 26.7995C28.6522 26.5717 28.842 26.3357 29.0221 26.092C29.3185 26.0312 29.6014 25.9996 29.8208 25.9957C30.4231 25.9848 31.5162 25.9381 32.4137 25.2336C33.3565 24.4935 33.5636 23.3973 33.5968 23.2215C33.6703 22.8327 33.761 22.4406 33.8671 22.0595C33.9141 21.8907 34.215 20.8094 33.6906 19.7259C33.1913 18.6943 32.2229 18.1742 31.6878 17.9031C31.4887 17.8023 31.2439 17.6473 31.001 17.4599C30.9471 17.1722 30.882 16.8882 30.8063 16.6085C30.9432 16.329 31.0976 16.0775 31.2342 15.8974C31.596 15.4202 32.2407 14.5259 32.2339 13.3753C32.2263 12.1032 31.391 11.2381 31.3505 11.1885L30.6211 10.2945C30.5759 10.2391 29.9027 9.25943 28.6688 8.9915C27.5558 8.74981 26.5538 9.18191 26.0052 9.4354C25.8126 9.52438 25.5539 9.61634 25.2699 9.68982C24.9975 9.54501 24.7184 9.41103 24.433 9.28848C24.3073 9.01725 24.2132 8.75266 24.1606 8.54372ZM28.684 11.8749L29.4134 12.7689C29.7781 13.2159 29.9605 13.4395 29.2421 14.3869C28.8377 14.9202 28.4063 15.7098 28.156 16.5222C28.4123 17.2116 28.5823 17.9425 28.6532 18.7019C29.2346 19.3165 29.964 19.8324 30.5581 20.1333C31.6223 20.6723 31.5571 20.9525 31.4267 21.513L31.166 22.6339C31.0356 23.1944 30.9704 23.4746 29.7759 23.4961C29.1155 23.5079 28.2425 23.6516 27.4545 23.9452C27.0542 24.6064 26.5672 25.21 26.0091 25.7405C25.8997 26.5659 25.9552 27.4383 26.0916 28.0773C26.3393 29.2374 26.0788 29.3635 25.558 29.6156L24.5162 30.1199C23.9953 30.3721 23.7349 30.4981 22.9664 29.5902C22.5354 29.0812 21.8609 28.4888 21.1229 28.0644C20.3863 28.1589 19.6092 28.1589 18.8726 28.0644C18.1347 28.4888 17.4601 29.0812 17.0291 29.5902C16.2606 30.4981 16.0002 30.3721 15.4793 30.1199L14.4376 29.6156C13.9167 29.3635 13.6562 29.2374 13.9039 28.0773C14.0403 27.4383 14.0958 26.5659 13.9864 25.7405C13.4283 25.21 12.9413 24.6064 12.541 23.9452C11.753 23.6516 10.88 23.5079 10.2196 23.4961C9.02507 23.4746 8.95989 23.1944 8.82952 22.6339L8.56879 21.513C8.43843 20.9525 8.37325 20.6723 9.43741 20.1333C10.0315 19.8324 10.7609 19.3165 11.3423 18.7019C11.4132 17.9425 11.5833 17.2116 11.8395 16.5222C11.5893 15.7098 11.1578 14.9202 10.7534 14.3869C10.035 13.4395 10.2174 13.2159 10.5821 12.7689L11.3115 11.8749C11.6762 11.4279 11.8586 11.2044 12.9417 11.7048C13.5352 11.9791 14.3736 12.2278 15.2044 12.3091C15.8453 11.8878 16.5458 11.5486 17.2906 11.3066C17.759 10.6087 18.0983 9.7929 18.2592 9.15434C18.5489 8.00394 18.8387 8.00394 19.4182 8.00394L20.6766 8.00417C21.1909 8.00792 21.4636 8.07161 21.7363 9.15434C21.8972 9.7929 22.2366 10.6087 22.705 11.3066C23.4497 11.5486 24.1502 11.8878 24.7911 12.3091C25.6219 12.2278 26.4603 11.9791 27.0538 11.7048C28.1369 11.2044 28.3193 11.4279 28.684 11.8749Z" stroke="black" stroke-opacity="0.05" mask="url(#path-1-outside-1_503_538)"/>
<path fill-rule="evenodd" clip-rule="evenodd" d="M25.9978 19.5039C25.9978 22.8176 23.3115 25.5039 19.9978 25.5039C16.684 25.5039 13.9978 22.8176 13.9978 19.5039C13.9978 16.1902 16.684 13.5039 19.9978 13.5039C23.3115 13.5039 25.9978 16.1902 25.9978 19.5039ZM19.9978 23.0039C21.9308 23.0039 23.4978 21.4369 23.4978 19.5039C23.4978 17.5709 21.9308 16.0039 19.9978 16.0039C18.0648 16.0039 16.4978 17.5709 16.4978 19.5039C16.4978 21.4369 18.0648 23.0039 19.9978 23.0039Z" stroke="black" stroke-opacity="0.05" mask="url(#path-1-outside-1_503_538)"/>
</g>
<defs>
<filter id="filter0_d_503_538" x="0.5" y="-0.000152588" width="38.9956" height="38.3016" filterUnits="userSpaceOnUse" color-interpolation-filters="sRGB">
<feFlood flood-opacity="0" result="BackgroundImageFix"/>
<feColorMatrix in="SourceAlpha" type="matrix" values="0 0 0 0 0 0 0 0 0 0 0 0 0 0 0 0 0 0 127 0" result="hardAlpha"/>
<feOffset/>
<feGaussianBlur stdDeviation="2.5"/>
<feColorMatrix type="matrix" values="0 0 0 0 0 0 0 0 0 0 0 0 0 0 0 0 0 0 0.16 0"/>
<feBlend mode="normal" in2="BackgroundImageFix" result="effect1_dropShadow_503_538"/>
<feBlend mode="normal" in="SourceGraphic" in2="effect1_dropShadow_503_538" result="shape"/>
</filter>
</defs>
</svg>
