<svg width="16" height="16" viewBox="0 0 16 16" fill="none" xmlns="http://www.w3.org/2000/svg">
<path fill-rule="evenodd" clip-rule="evenodd" d="M11.0764 0.648861C11.5094 0.216434 12.0783 0 12.6448 0C13.2113 0 13.7802 0.216433 14.2132 0.648861L15.3504 1.78467C15.7833 2.21709 16 2.78536 16 3.35115C16 3.91695 15.7833 4.48521 15.3504 4.91764L14.4086 5.85823L5.23857 15.0366C4.6209 15.6535 3.78317 16 2.90967 16H1.00004C0.44775 16 3.24602e-05 15.5523 3.87177e-05 15L2.73928e-05 13.1073C-0.00355243 12.23 0.343872 11.3878 0.964768 10.7677L9.08823 2.63515L11.0764 0.648861ZM13.3619 4.78363L14.2891 3.85761C14.4292 3.71761 14.4991 3.53562 14.4991 3.35115C14.4991 3.16669 14.4292 2.9847 14.2891 2.8447L13.1519 1.70889C13.0117 1.56889 12.8295 1.49911 12.6448 1.49911C12.4601 1.49911 12.2779 1.56889 12.1377 1.70889L11.2106 2.63491L13.3619 4.78363ZM10.135 3.70975L2.02604 11.8277C1.68981 12.1635 1.50091 12.619 1.50091 13.0939L1.50019 14.2007C1.50009 14.3665 1.63443 14.5009 1.80019 14.5009H2.90967C3.38512 14.5009 3.8411 14.3123 4.1773 13.9765L12.2863 5.85847L10.135 3.70975Z" fill="white"/>
</svg>
